<svg width="194" height="25" viewBox="0 0 194 25" fill="none" xmlns="http://www.w3.org/2000/svg">
<path d="M36.21 0H0V24.22H36.21V0Z" fill="#2C4390"/>
<path d="M18.49 3.44H19.75L18.74 4.23L19.13 5.49L18.12 4.71L17.11 5.49L17.51 4.23L16.49 3.44H17.74L18.12 2.21L18.49 3.44Z" fill="#FFED00"/>
<path d="M18.54 19.59H19.8L18.78 20.36L19.18 21.56L18.17 20.82L17.16 21.56L17.56 20.36L16.53 19.59H17.79L18.17 18.42L18.54 19.59Z" fill="#FFED00"/>
<path d="M22.54 18.52H23.8L22.79 19.29L23.18 20.49L22.16 19.75L21.15 20.49L21.55 19.29L20.53 18.52H21.79L22.16 17.35L22.54 18.52Z" fill="#FFED00"/>
<path d="M22.54 4.52H23.8L22.79 5.28L23.18 6.48L22.16 5.74L21.15 6.48L21.55 5.28L20.53 4.52H21.79L22.16 3.34L22.54 4.52Z" fill="#FFED00"/>
<path d="M25.5 7.48H26.76L25.75 8.24L26.14 9.45L25.13 8.71L24.12 9.45L24.52 8.24L23.49 7.48H24.75L25.13 6.31L25.5 7.48Z" fill="#FFED00"/>
<path d="M25.5 15.6H26.76L25.75 16.36L26.14 17.57L25.13 16.82L24.12 17.57L24.52 16.36L23.49 15.6H24.75L25.13 14.42L25.5 15.6Z" fill="#FFED00"/>
<path d="M26.62 11.48H27.88L26.86 12.24L27.25 13.45L26.24 12.7L25.23 13.45L25.63 12.24L24.61 11.48H25.86L26.24 10.3L26.62 11.48Z" fill="#FFED00"/>
<path d="M14.42 4.53H15.68L14.67 5.29L15.06 6.5L14.05 5.76L13.04 6.5L13.43 5.29L12.41 4.53H13.67L14.05 3.35L14.42 4.53Z" fill="#FFED00"/>
<path d="M11.54 7.49H12.8L11.78 8.25L12.18 9.46L11.16 8.72L10.15 9.46L10.55 8.25L9.53 7.49H10.79L11.16 6.32L11.54 7.49Z" fill="#FFED00"/>
<path d="M10.47 11.49H11.73L10.71 12.25L11.1 13.46L10.1 12.72L9.08001 13.46L9.48001 12.25L8.46001 11.49H9.71001L10.1 10.31L10.47 11.49Z" fill="#FFED00"/>
<path d="M11.54 15.61H12.8L11.78 16.37L12.18 17.58L11.16 16.83L10.15 17.58L10.55 16.37L9.53 15.61H10.79L11.16 14.43L11.54 15.61Z" fill="#FFED00"/>
<path d="M14.46 18.53H15.72L14.71 19.29L15.1 20.5L14.09 19.76L13.08 20.5L13.48 19.29L12.45 18.53H13.71L14.09 17.36L14.46 18.53Z" fill="#FFED00"/>
<path d="M43.65 18.79C43.3 18.79 43.21 18.62 43.21 18.37V6.49C43.21 6.24 43.31 6.07 43.63 6.07H47.81C52.25 6.07 53.44 9.02 53.44 12.39C53.44 15.76 52.31 18.79 47.81 18.79H43.65ZM47.6 8.62H46.24V16.25H47.47C49.19 16.25 50.29 15.25 50.29 12.53C50.29 9.81 49.45 8.62 47.61 8.62" fill="#636363"/>
<path d="M58.13 14.75C58.21 16.22 58.92 16.53 60.2 16.53C60.79 16.53 61.67 16.43 62.46 16.34C62.96 16.28 63.02 16.28 63.11 16.76L63.26 17.66C63.34 18.1 63.34 18.29 62.76 18.52C61.99 18.79 60.59 18.96 59.68 18.96C55.83 18.96 55.14 16.66 55.14 14.13C55.14 12.29 55.49 9.15 59.51 9.15C63.17 9.15 63.84 11.47 63.86 13.52C63.86 14.31 63.63 14.75 62.81 14.75H58.13ZM58.17 13.02H60.83C60.83 12.1 60.5 11.39 59.51 11.39C58.61 11.39 58.23 11.96 58.17 13.02Z" fill="#636363"/>
<path d="M68.77 18.96C67.85 18.96 66.53 18.79 65.76 18.54C65.13 18.31 64.99 18.12 65.11 17.62L65.32 16.7C65.4 16.34 65.51 16.3 65.93 16.38C66.81 16.53 68.02 16.63 68.67 16.63C69.65 16.63 70.01 16.42 70.01 15.92C70.01 15.36 69.74 15.23 68.94 15.13C66.87 14.84 65.17 14.46 65.17 12.22C65.17 10.19 66.82 9.15 69.08 9.15C69.94 9.15 71.25 9.28 72.05 9.57C72.57 9.74 72.82 9.88 72.7 10.35L72.49 11.33C72.39 11.69 72.34 11.73 71.91 11.68C71.05 11.57 69.78 11.45 69.19 11.45C68.21 11.43 68.1 11.7 68.1 12.1C68.1 12.58 68.6 12.66 69.29 12.77C71.26 13.02 73.01 13.4 73.01 15.8C73.01 18.2 70.96 18.96 68.78 18.96" fill="#636363"/>
<path d="M81.21 17.93C81.29 18.22 81.11 18.47 80.86 18.54C79.94 18.85 78.68 18.94 78.06 18.94C75.65 18.94 75.23 17.46 75.23 15.89V11.62H74.39C74.08 11.62 73.99 11.49 73.99 11.2V9.76C73.99 9.47 74.09 9.34 74.39 9.34H75.25V7.46C75.25 7.15 75.42 7.04 75.67 6.96L77.61 6.44C77.88 6.34 78.09 6.46 78.09 6.77V9.34H80.04C80.39 9.34 80.44 9.48 80.44 9.74V11.2C80.44 11.49 80.38 11.62 80.04 11.62H78.07L78.09 15.18C78.09 15.91 78.15 16.19 79.26 16.21C79.57 16.21 80.1 16.17 80.58 16.13C80.83 16.13 80.98 16.09 81.04 16.53L81.21 17.91V17.93Z" fill="#636363"/>
<path d="M83.83 8.27C82.49 8.27 82.3 7.52 82.3 6.83C82.3 6.04 82.61 5.41 83.83 5.41C85.05 5.41 85.34 6 85.34 6.83C85.34 7.56 85.11 8.27 83.83 8.27ZM85.25 18.37C85.25 18.56 85.19 18.79 84.87 18.79H82.76C82.44 18.79 82.34 18.62 82.34 18.37V9.75C82.34 9.48 82.44 9.33 82.76 9.33H84.87C85.2 9.33 85.25 9.58 85.25 9.75V18.37Z" fill="#636363"/>
<path d="M95.66 18.79H93.55C93.24 18.79 93.13 18.64 93.13 18.39C93.13 16.7 93.15 15.04 93.15 13.37C93.15 12.32 92.8 11.9 91.98 11.9C91.37 11.9 90.56 12.3 90.1 12.46V18.4C90.1 18.59 90.04 18.8 89.7 18.8H87.61C87.28 18.8 87.19 18.65 87.19 18.4V9.78C87.19 9.53 87.29 9.36 87.61 9.36H89.7C90.05 9.36 90.1 9.59 90.1 9.78V10.24C90.1 10.24 90.14 10.26 90.16 10.26C91 9.63 92.25 9.19 93.17 9.19C95.89 9.19 96.06 11.18 96.06 12.97V18.41C96.06 18.6 96 18.81 95.66 18.81" fill="#636363"/>
<path d="M103.65 17.64C102.65 18.58 101.18 18.94 100.22 18.94C97.98 18.94 97.54 17.58 97.54 16.12C97.5 13.76 98.96 12.94 101.22 12.94H103.42V12.63C103.42 11.82 103.15 11.5 101.73 11.5C101.17 11.5 99.97 11.6 99.22 11.67C98.68 11.73 98.59 11.73 98.49 11.34L98.28 10.34C98.22 10.01 98.3 9.82 98.89 9.59C99.75 9.26 101.3 9.13 102.19 9.13C105.79 9.13 106.29 10.47 106.29 12.75V15.78C106.29 16.58 106.4 16.62 107 16.7C107.33 16.72 107.4 16.8 107.4 17.03V18.26C107.4 18.55 107.21 18.68 106.84 18.76C106.46 18.86 106.05 18.89 105.65 18.89C104.71 18.89 103.93 18.66 103.68 17.64L103.64 17.62L103.65 17.64ZM103.36 14.8H101.63C100.92 14.8 100.48 15.07 100.48 15.97C100.48 16.56 100.69 16.76 101.34 16.76C101.93 16.76 102.81 16.41 103.35 16.09V14.81L103.36 14.8Z" fill="#636363"/>
<path d="M115.26 17.93C115.34 18.22 115.16 18.47 114.91 18.54C113.99 18.85 112.73 18.94 112.11 18.94C109.7 18.94 109.28 17.46 109.28 15.89V11.62H108.44C108.13 11.62 108.04 11.49 108.04 11.2V9.76C108.04 9.47 108.14 9.34 108.44 9.34H109.3V7.46C109.3 7.15 109.47 7.04 109.72 6.96L111.65 6.44C111.92 6.34 112.13 6.46 112.13 6.77V9.34H114.08C114.43 9.34 114.48 9.48 114.48 9.74V11.2C114.48 11.49 114.42 11.62 114.08 11.62H112.11L112.13 15.18C112.13 15.91 112.19 16.19 113.3 16.21C113.61 16.21 114.14 16.17 114.62 16.13C114.87 16.13 115.02 16.09 115.08 16.53L115.25 17.91L115.26 17.93Z" fill="#636363"/>
<path d="M117.89 8.27C116.55 8.27 116.36 7.52 116.36 6.83C116.36 6.04 116.67 5.41 117.89 5.41C119.11 5.41 119.4 6 119.4 6.83C119.4 7.56 119.17 8.27 117.89 8.27ZM119.31 18.37C119.31 18.56 119.25 18.79 118.93 18.79H116.82C116.5 18.79 116.4 18.62 116.4 18.37V9.75C116.4 9.48 116.5 9.33 116.82 9.33H118.93C119.26 9.33 119.31 9.58 119.31 9.75V18.37Z" fill="#636363"/>
<path d="M125.53 18.94C121.41 18.94 121.14 16.01 121.14 13.92C121.14 12.18 121.6 9.15 125.53 9.15C129.46 9.15 130.07 11.7 130.07 13.92C130.07 16.01 129.74 18.94 125.53 18.94ZM125.57 11.64C124.4 11.64 124.09 12.48 124.09 14.04C124.09 15.71 124.38 16.45 125.53 16.45C126.81 16.45 127.08 15.66 127.08 14.04C127.08 12.42 126.85 11.64 125.57 11.64Z" fill="#636363"/>
<path d="M140.04 18.79H137.93C137.62 18.79 137.51 18.64 137.51 18.39C137.51 16.7 137.53 15.04 137.53 13.37C137.53 12.32 137.18 11.9 136.36 11.9C135.75 11.9 134.94 12.3 134.48 12.46V18.4C134.48 18.59 134.42 18.8 134.08 18.8H131.99C131.66 18.8 131.57 18.65 131.57 18.4V9.78C131.57 9.53 131.67 9.36 131.99 9.36H134.08C134.43 9.36 134.48 9.59 134.48 9.78V10.24C134.48 10.24 134.52 10.26 134.54 10.26C135.38 9.63 136.63 9.19 137.55 9.19C140.27 9.19 140.44 11.18 140.44 12.97V18.41C140.44 18.6 140.38 18.81 140.04 18.81" fill="#636363"/>
<path d="M147.91 6.49C147.91 6.24 148.01 6.05 148.33 6.05H155.94C156.19 6.05 156.34 6.22 156.34 6.47V8.21C156.34 8.44 156.24 8.61 155.92 8.61H150.96V10.93H155.29C155.56 10.93 155.73 11.08 155.73 11.33V13.07C155.73 13.3 155.64 13.47 155.29 13.47H150.96V16.23H156.02C156.29 16.23 156.44 16.4 156.44 16.65V18.39C156.44 18.62 156.34 18.77 156.02 18.77H148.34C148.01 18.77 147.92 18.6 147.92 18.37V6.49H147.91Z" fill="#636363"/>
<path d="M163.97 17.64C162.97 18.58 161.5 18.94 160.54 18.94C158.3 18.94 157.86 17.58 157.86 16.12C157.82 13.76 159.28 12.94 161.54 12.94H163.74V12.63C163.74 11.82 163.47 11.5 162.05 11.5C161.49 11.5 160.29 11.6 159.54 11.67C159 11.73 158.91 11.73 158.81 11.34L158.6 10.34C158.54 10.01 158.62 9.82 159.21 9.59C160.07 9.26 161.62 9.13 162.51 9.13C166.11 9.13 166.61 10.47 166.61 12.75V15.78C166.61 16.58 166.72 16.62 167.32 16.7C167.65 16.72 167.72 16.8 167.72 17.03V18.26C167.72 18.55 167.53 18.68 167.16 18.76C166.78 18.86 166.37 18.89 165.97 18.89C165.03 18.89 164.25 18.66 164 17.64L163.96 17.62L163.97 17.64ZM163.68 14.8H161.95C161.24 14.8 160.8 15.07 160.8 15.97C160.8 16.56 161.01 16.76 161.66 16.76C162.25 16.76 163.13 16.41 163.67 16.09V14.81L163.68 14.8Z" fill="#636363"/>
<path d="M172.04 10.66L172.08 10.7C172.77 9.99 174.05 9.36 174.86 9.23C175.26 9.17 175.43 9.19 175.49 9.67L175.72 11.55C175.76 11.89 175.76 12.01 175.18 12.12C174.05 12.33 172.96 12.62 172.04 12.94V18.36C172.04 18.55 171.98 18.78 171.64 18.78H169.53C169.2 18.78 169.11 18.61 169.11 18.36V9.74C169.11 9.49 169.21 9.32 169.53 9.32H171.62C171.98 9.32 172.04 9.57 172.04 9.74V10.66Z" fill="#636363"/>
<path d="M183.27 17.93C183.35 18.22 183.17 18.47 182.92 18.54C182 18.85 180.74 18.94 180.12 18.94C177.71 18.94 177.29 17.46 177.29 15.89V11.62H176.45C176.14 11.62 176.05 11.49 176.05 11.2V9.76C176.05 9.47 176.15 9.34 176.45 9.34H177.31V7.46C177.31 7.15 177.48 7.04 177.73 6.96L179.66 6.44C179.93 6.34 180.14 6.46 180.14 6.77V9.34H182.09C182.44 9.34 182.49 9.48 182.49 9.74V11.2C182.49 11.49 182.43 11.62 182.09 11.62H180.12L180.14 15.18C180.14 15.91 180.2 16.19 181.31 16.21C181.62 16.21 182.15 16.17 182.63 16.13C182.88 16.13 183.03 16.09 183.09 16.53L183.26 17.91L183.27 17.93Z" fill="#636363"/>
<path d="M193.02 18.37C193.02 18.56 192.96 18.79 192.62 18.79H190.51C190.2 18.79 190.09 18.62 190.09 18.37C190.09 17.55 190.11 14.04 190.11 13.22C190.11 12.19 189.75 11.78 188.94 11.78C188.36 11.78 187.5 12.14 187.06 12.34V18.38C187.06 18.57 187 18.8 186.66 18.8H184.55C184.24 18.8 184.15 18.63 184.15 18.38V5.68C184.15 5.43 184.25 5.26 184.55 5.26H186.68C187.02 5.26 187.08 5.49 187.08 5.68V10.01C187.87 9.57 188.98 9.15 189.93 9.15C192.8 9.15 193.02 11.14 193.02 12.92V18.36V18.37Z" fill="#636363"/>
</svg>
