<?xml version="1.0" encoding="UTF-8"?>
<svg xmlns="http://www.w3.org/2000/svg" width="62" height="62" viewBox="0 0 62 62" fill="none">
  <g clip-path="url(#clip0_582_21891)">
    <rect width="62" height="62" rx="31" fill="white"></rect>
    <path d="M79.1779 -2H-18V63H79.1779V-2Z" fill="#2C4390"></path>
    <path d="M31.6222 7.23202H35.0037L32.2931 9.35217L33.3398 12.7337L30.6292 10.6404L27.9186 12.7337L28.9921 9.35217L26.2547 7.23202H29.6094L30.6292 3.93103L31.6222 7.23202Z" fill="#FFED00"></path>
    <path d="M31.7564 50.5743H35.1379L32.4005 52.6408L33.474 55.8612L30.7634 53.8753L28.0528 55.8612L29.1263 52.6408L26.3621 50.5743H29.7436L30.7634 47.4343L31.7564 50.5743Z" fill="#FFED00"></path>
    <path d="M42.4913 47.7027H45.8728L43.1622 49.7692L44.2089 52.9897L41.4715 51.0037L38.7609 52.9897L39.8344 49.7692L37.097 47.7027H40.4785L41.4715 44.5627L42.4913 47.7027Z" fill="#FFED00"></path>
    <path d="M42.4913 10.1304H45.8728L43.1622 12.1701L44.2089 15.3905L41.4715 13.4046L38.7609 15.3905L39.8344 12.1701L37.097 10.1304H40.4785L41.4715 6.96362L42.4913 10.1304Z" fill="#FFED00"></path>
    <path d="M50.4353 18.0743H53.8168L51.1062 20.1139L52.1528 23.3612L49.4423 21.3753L46.7317 23.3612L47.8052 20.1139L45.041 18.0743H48.4225L49.4423 14.9343L50.4353 18.0743Z" fill="#FFED00"></path>
    <path d="M50.4353 39.8663H53.8168L51.1062 41.9059L52.1528 45.1532L49.4423 43.1404L46.7317 45.1532L47.8052 41.9059L45.041 39.8663H48.4225L49.4423 36.6995L50.4353 39.8663Z" fill="#FFED00"></path>
    <path d="M53.4409 28.8092H56.8224L54.085 30.8488L55.1317 34.0962L52.4211 32.0834L49.7105 34.0962L50.784 30.8488L48.0466 28.8092H51.4013L52.4211 25.6424L53.4409 28.8092Z" fill="#FFED00"></path>
    <path d="M20.6995 10.1573H24.081L21.3704 12.197L22.4171 15.4443L19.7065 13.4583L16.9959 15.4443L18.0426 12.197L15.3052 10.1573H18.6867L19.7065 6.99054L20.6995 10.1573Z" fill="#FFED00"></path>
    <path d="M12.9703 18.1012H16.3518L13.6144 20.1408L14.6879 23.3882L11.9505 21.4022L9.23991 23.3882L10.3134 20.1408L7.57599 18.1012H10.9575L11.9505 14.9612L12.9703 18.1012Z" fill="#FFED00"></path>
    <path d="M10.0987 28.8361H13.4802L10.7428 30.8757L11.7895 34.123L9.10574 32.137L6.36833 34.123L7.44182 30.8757L4.70441 28.8361H8.05907L9.10574 25.6693L10.0987 28.8361Z" fill="#FFED00"></path>
    <path d="M12.9703 39.893H16.3518L13.6144 41.9326L14.6879 45.18L11.9505 43.1672L9.23991 45.18L10.3134 41.9326L7.57599 39.893H10.9575L11.9505 36.7262L12.9703 39.893Z" fill="#FFED00"></path>
    <path d="M20.8067 47.7294H24.1882L21.4776 49.7691L22.5243 53.0164L19.8137 51.0304L17.1032 53.0164L18.1767 49.7691L15.4124 47.7294H18.7939L19.8137 44.5895L20.8067 47.7294Z" fill="#FFED00"></path>
  </g>
  <defs>
    <clipPath id="clip0_582_21891">
      <rect width="62" height="62" rx="31" fill="white"></rect>
    </clipPath>
  </defs>
</svg>
