<?xml version="1.0" encoding="UTF-8" standalone="no"?>
<!DOCTYPE svg PUBLIC "-//W3C//DTD SVG 1.1//EN"
 "http://www.w3.org/Graphics/SVG/1.1/DTD/svg11.dtd">
<!-- Generated by graphviz version 13.0.1 (20250616.1512)
 -->
<!-- Pages: 1 -->
<svg width="2992pt" height="754pt"
 viewBox="0.00 0.00 2992.00 754.00" xmlns="http://www.w3.org/2000/svg" xmlns:xlink="http://www.w3.org/1999/xlink">
<g id="graph0" class="graph" transform="scale(2.08333 2.08333) rotate(0) translate(4 358)">
<polygon fill="white" stroke="none" points="-4,4 -4,-358 1432.03,-358 1432.03,4 -4,4"/>
<g id="clust3" class="cluster">
<title>cluster_discovery</title>
<path fill="none" stroke="#d6eaf8" d="M246.04,-146C246.04,-146 403.04,-146 403.04,-146 409.04,-146 415.04,-152 415.04,-158 415.04,-158 415.04,-334 415.04,-334 415.04,-340 409.04,-346 403.04,-346 403.04,-346 246.04,-346 246.04,-346 240.04,-346 234.04,-340 234.04,-334 234.04,-334 234.04,-158 234.04,-158 234.04,-152 240.04,-146 246.04,-146"/>
<text xml:space="preserve" text-anchor="middle" x="324.54" y="-328.7" font-family="Times,serif" font-size="14.00" fill="#1f618d">Discovery/search (STAC API)</text>
</g>
<g id="clust4" class="cluster">
<title>cluster_execution</title>
<path fill="none" stroke="#ffffff" d="M1052,-83C1052,-83 1215.75,-83 1215.75,-83 1221.75,-83 1227.75,-89 1227.75,-95 1227.75,-95 1227.75,-153 1227.75,-153 1227.75,-159 1221.75,-165 1215.75,-165 1215.75,-165 1052,-165 1052,-165 1046,-165 1040,-159 1040,-153 1040,-153 1040,-95 1040,-95 1040,-89 1046,-83 1052,-83"/>
<text xml:space="preserve" text-anchor="middle" x="1133.87" y="-147.7" font-family="Times,serif" font-size="14.00" fill="#ffffff">Data Access (HDA + Polytope)</text>
</g>
<!-- U -->
<g id="node1" class="node">
<title>U</title>
<ellipse fill="#e8daef" stroke="black" cx="29.52" cy="-175" rx="29.52" ry="29.52"/>
<text xml:space="preserve" text-anchor="middle" x="29.52" y="-178.57" font-family="Times,serif" font-size="14.00">👤</text>
<text xml:space="preserve" text-anchor="middle" x="29.52" y="-161.32" font-family="Times,serif" font-size="14.00">User</text>
</g>
<!-- C -->
<g id="node2" class="node">
<title>C</title>
<polygon fill="#f5b041" stroke="black" points="381.54,-313.5 266.54,-313.5 266.54,-272.5 381.54,-272.5 381.54,-313.5"/>
<text xml:space="preserve" text-anchor="middle" x="324.04" y="-296.2" font-family="Times,serif" font-size="14.00">HDA &#45; STAC API</text>
<text xml:space="preserve" text-anchor="middle" x="324.04" y="-279.7" font-family="Times,serif" font-size="14.00">/Collections</text>
</g>
<!-- U&#45;&gt;C -->
<g id="edge1" class="edge">
<title>U&#45;&gt;C</title>
<path fill="none" stroke="black" d="M37.37,-203.68C43.92,-224.51 56.01,-251.49 77.04,-266 128.86,-301.74 201.93,-305.41 254.96,-302.02"/>
<polygon fill="black" stroke="black" points="255.08,-305.52 264.79,-301.28 254.55,-298.54 255.08,-305.52"/>
<text xml:space="preserve" text-anchor="middle" x="150.54" y="-322.71" font-family="Times,serif" font-size="14.00">Discover</text>
<text xml:space="preserve" text-anchor="middle" x="150.54" y="-306.21" font-family="Times,serif" font-size="14.00">Climate DT collections</text>
</g>
<!-- H -->
<g id="node3" class="node">
<title>H</title>
<polygon fill="#f5b041" stroke="black" points="381.54,-254.5 266.54,-254.5 266.54,-213.5 381.54,-213.5 381.54,-254.5"/>
<text xml:space="preserve" text-anchor="middle" x="324.04" y="-237.2" font-family="Times,serif" font-size="14.00">HDA &#45; STAC API</text>
<text xml:space="preserve" text-anchor="middle" x="324.04" y="-220.7" font-family="Times,serif" font-size="14.00">/Collections/{id}</text>
</g>
<!-- U&#45;&gt;H -->
<g id="edge3" class="edge">
<title>U&#45;&gt;H</title>
<path fill="none" stroke="black" d="M51.73,-194.8C59.2,-200.68 68,-206.48 77.04,-210 108.38,-222.2 193.57,-228.45 254.91,-231.47"/>
<polygon fill="black" stroke="black" points="254.41,-234.95 264.56,-231.93 254.74,-227.96 254.41,-234.95"/>
<text xml:space="preserve" text-anchor="middle" x="150.54" y="-249.17" font-family="Times,serif" font-size="14.00">Discover query parameters</text>
<text xml:space="preserve" text-anchor="middle" x="150.54" y="-232.67" font-family="Times,serif" font-size="14.00">(collection metadata)</text>
</g>
<!-- Q -->
<g id="node4" class="node">
<title>Q</title>
<polygon fill="#f5b041" stroke="black" points="381.54,-195.5 266.54,-195.5 266.54,-154.5 381.54,-154.5 381.54,-195.5"/>
<text xml:space="preserve" text-anchor="middle" x="324.04" y="-178.2" font-family="Times,serif" font-size="14.00">HDA &#45; STAC API</text>
<text xml:space="preserve" text-anchor="middle" x="324.04" y="-161.7" font-family="Times,serif" font-size="14.00">/Search</text>
</g>
<!-- U&#45;&gt;Q -->
<g id="edge2" class="edge">
<title>U&#45;&gt;Q</title>
<path fill="none" stroke="black" d="M59.37,-175C104.49,-175 192.99,-175 254.97,-175"/>
<polygon fill="black" stroke="black" points="254.7,-178.5 264.7,-175 254.7,-171.5 254.7,-178.5"/>
<text xml:space="preserve" text-anchor="middle" x="150.54" y="-194.7" font-family="Times,serif" font-size="14.00">Search</text>
<text xml:space="preserve" text-anchor="middle" x="150.54" y="-178.2" font-family="Times,serif" font-size="14.00">Climate DT data</text>
</g>
<!-- D -->
<g id="node6" class="node">
<title>D</title>
<polygon fill="#fdedec" stroke="black" points="989.52,-146.5 873.02,-146.5 873.02,-105.5 989.52,-105.5 989.52,-146.5"/>
<text xml:space="preserve" text-anchor="middle" x="931.27" y="-129.2" font-family="Times,serif" font-size="14.00">HDA &#45; Order API</text>
<text xml:space="preserve" text-anchor="middle" x="931.27" y="-112.7" font-family="Times,serif" font-size="14.00">Automatic routing</text>
</g>
<!-- U&#45;&gt;D -->
<g id="edge4" class="edge">
<title>U&#45;&gt;D</title>
<path fill="none" stroke="black" d="M58.09,-167.24C109.67,-153.42 224.44,-126 323.04,-126 323.04,-126 323.04,-126 766.04,-126 797.38,-126 832.08,-126 861.48,-126"/>
<polygon fill="black" stroke="black" points="861.37,-129.5 871.37,-126 861.37,-122.5 861.37,-129.5"/>
<text xml:space="preserve" text-anchor="middle" x="507.42" y="-129.2" font-family="Times,serif" font-size="14.00">Order Climate DT data</text>
</g>
<!-- P -->
<g id="node5" class="node">
<title>P</title>
<ellipse fill="#f9e79f" stroke="black" cx="931.27" cy="-211" rx="79.73" ry="28.99"/>
<text xml:space="preserve" text-anchor="middle" x="931.27" y="-214.2" font-family="Times,serif" font-size="14.00">Order Payload</text>
<text xml:space="preserve" text-anchor="middle" x="931.27" y="-197.7" font-family="Times,serif" font-size="14.00">(polytope format)</text>
</g>
<!-- Q&#45;&gt;P -->
<g id="edge5" class="edge">
<title>Q&#45;&gt;P</title>
<path fill="none" stroke="black" d="M381.98,-178.39C487.67,-184.67 714.88,-198.19 841.12,-205.7"/>
<polygon fill="black" stroke="black" points="840.56,-209.17 850.75,-206.27 840.98,-202.18 840.56,-209.17"/>
<text xml:space="preserve" text-anchor="middle" x="643.17" y="-200.32" font-family="Times,serif" font-size="14.00">Build order payload</text>
</g>
<!-- P&#45;&gt;D -->
<g id="edge6" class="edge">
<title>P&#45;&gt;D</title>
<path fill="none" stroke="black" d="M931.27,-181.71C931.27,-173.92 931.27,-166.13 931.27,-158.33"/>
<polygon fill="black" stroke="black" points="934.77,-158.43 931.27,-148.43 927.77,-158.43 934.77,-158.43"/>
</g>
<!-- P1 -->
<g id="node7" class="node">
<title>P1</title>
<polygon fill="#82e0aa" stroke="black" points="980.89,-69.5 881.64,-69.5 881.64,-28.5 980.89,-28.5 980.89,-69.5"/>
<text xml:space="preserve" text-anchor="middle" x="931.27" y="-52.2" font-family="Times,serif" font-size="14.00">Polytope</text>
<text xml:space="preserve" text-anchor="middle" x="931.27" y="-35.7" font-family="Times,serif" font-size="14.00">(Marenostrum)</text>
</g>
<!-- D&#45;&gt;P1 -->
<g id="edge7" class="edge">
<title>D&#45;&gt;P1</title>
<path fill="none" stroke="black" d="M931.27,-105.35C931.27,-97.28 931.27,-89.22 931.27,-81.15"/>
<polygon fill="black" stroke="black" points="934.77,-81.27 931.27,-71.27 927.77,-81.27 934.77,-81.27"/>
</g>
<!-- P2 -->
<g id="node8" class="node">
<title>P2</title>
<polygon fill="#82e0aa" stroke="black" points="1165.37,-132.5 1101.37,-132.5 1101.37,-91.5 1165.37,-91.5 1165.37,-132.5"/>
<text xml:space="preserve" text-anchor="middle" x="1133.37" y="-115.2" font-family="Times,serif" font-size="14.00">Polytope</text>
<text xml:space="preserve" text-anchor="middle" x="1133.37" y="-98.7" font-family="Times,serif" font-size="14.00">(LUMI)</text>
</g>
<!-- D&#45;&gt;P2 -->
<g id="edge8" class="edge">
<title>D&#45;&gt;P2</title>
<path fill="none" stroke="black" d="M989.88,-121.97C1021.64,-119.75 1060.41,-117.03 1089.48,-115"/>
<polygon fill="black" stroke="black" points="1089.66,-118.5 1099.39,-114.31 1089.17,-111.51 1089.66,-118.5"/>
</g>
<!-- R -->
<g id="node9" class="node">
<title>R</title>
<ellipse fill="#d5f5e3" stroke="black" cx="1342.39" cy="-49" rx="85.64" ry="18"/>
<text xml:space="preserve" text-anchor="middle" x="1342.39" y="-43.95" font-family="Times,serif" font-size="14.00">Results (data / files)</text>
</g>
<!-- P1&#45;&gt;R -->
<g id="edge9" class="edge">
<title>P1&#45;&gt;R</title>
<path fill="none" stroke="black" d="M981.21,-49C1046.14,-49 1162.17,-49 1244.99,-49"/>
<polygon fill="black" stroke="black" points="1244.94,-52.5 1254.94,-49 1244.94,-45.5 1244.94,-52.5"/>
</g>
<!-- P2&#45;&gt;R -->
<g id="edge10" class="edge">
<title>P2&#45;&gt;R</title>
<path fill="none" stroke="black" d="M1165.81,-102.43C1196.39,-93.13 1243.62,-78.75 1281.4,-67.26"/>
<polygon fill="black" stroke="black" points="1282.29,-70.64 1290.83,-64.39 1280.25,-63.95 1282.29,-70.64"/>
</g>
<!-- R&#45;&gt;U -->
<g id="edge11" class="edge">
<title>R&#45;&gt;U</title>
<path fill="none" stroke="black" d="M1299.65,-33.09C1258.32,-18.78 1192.91,0 1134.37,0 323.04,0 323.04,0 323.04,0 211.44,0 105.52,-94.97 57.47,-144.99"/>
<polygon fill="black" stroke="black" points="55.09,-142.42 50.77,-152.09 60.18,-147.22 55.09,-142.42"/>
<text xml:space="preserve" text-anchor="middle" x="765.04" y="-3.2" font-family="Times,serif" font-size="14.00">download / access</text>
</g>
</g>
</svg>
